<mxfile host="Electron" modified="2023-10-26T16:26:25.885Z" agent="Mozilla/5.0 (Windows NT 10.0; Win64; x64) AppleWebKit/537.36 (KHTML, like Gecko) draw.io/22.0.3 Chrome/114.0.5735.289 Electron/25.8.4 Safari/537.36" etag="KXe65l435uACFysDO3oX" version="22.0.3" type="device">
  <diagram id="C5RBs43oDa-KdzZeNtuy" name="Page-1">
    <mxGraphModel dx="3163" dy="669" grid="1" gridSize="10" guides="1" tooltips="1" connect="1" arrows="1" fold="1" page="1" pageScale="1" pageWidth="827" pageHeight="1169" math="0" shadow="0">
      <root>
        <mxCell id="WIyWlLk6GJQsqaUBKTNV-0" />
        <mxCell id="WIyWlLk6GJQsqaUBKTNV-1" parent="WIyWlLk6GJQsqaUBKTNV-0" />
        <mxCell id="7aIhMmLS_khhMejl1p58-31" value="User" style="swimlane;fontStyle=1;align=center;verticalAlign=top;childLayout=stackLayout;horizontal=1;startSize=26;horizontalStack=0;resizeParent=1;resizeParentMax=0;resizeLast=0;collapsible=1;marginBottom=0;whiteSpace=wrap;html=1;" parent="WIyWlLk6GJQsqaUBKTNV-1" vertex="1">
          <mxGeometry x="-220" y="190" width="160" height="394" as="geometry" />
        </mxCell>
        <mxCell id="7aIhMmLS_khhMejl1p58-2" value="- vorname : String" style="text;strokeColor=none;fillColor=none;align=left;verticalAlign=top;spacingLeft=4;spacingRight=4;overflow=hidden;rotatable=0;points=[[0,0.5],[1,0.5]];portConstraint=eastwest;whiteSpace=wrap;html=1;" parent="7aIhMmLS_khhMejl1p58-31" vertex="1">
          <mxGeometry y="26" width="160" height="26" as="geometry" />
        </mxCell>
        <mxCell id="7aIhMmLS_khhMejl1p58-1" value="- id : Long" style="text;strokeColor=none;fillColor=none;align=left;verticalAlign=top;spacingLeft=4;spacingRight=4;overflow=hidden;rotatable=0;points=[[0,0.5],[1,0.5]];portConstraint=eastwest;whiteSpace=wrap;html=1;" parent="7aIhMmLS_khhMejl1p58-31" vertex="1">
          <mxGeometry y="52" width="160" height="26" as="geometry" />
        </mxCell>
        <mxCell id="7aIhMmLS_khhMejl1p58-49" value="- twoFactorID : Long" style="text;strokeColor=none;fillColor=none;align=left;verticalAlign=top;spacingLeft=4;spacingRight=4;overflow=hidden;rotatable=0;points=[[0,0.5],[1,0.5]];portConstraint=eastwest;whiteSpace=wrap;html=1;" parent="7aIhMmLS_khhMejl1p58-31" vertex="1">
          <mxGeometry y="78" width="160" height="26" as="geometry" />
        </mxCell>
        <mxCell id="7aIhMmLS_khhMejl1p58-3" value="- nachname : String" style="text;strokeColor=none;fillColor=none;align=left;verticalAlign=top;spacingLeft=4;spacingRight=4;overflow=hidden;rotatable=0;points=[[0,0.5],[1,0.5]];portConstraint=eastwest;whiteSpace=wrap;html=1;" parent="7aIhMmLS_khhMejl1p58-31" vertex="1">
          <mxGeometry y="104" width="160" height="26" as="geometry" />
        </mxCell>
        <mxCell id="7aIhMmLS_khhMejl1p58-4" value="- email : String" style="text;strokeColor=none;fillColor=none;align=left;verticalAlign=top;spacingLeft=4;spacingRight=4;overflow=hidden;rotatable=0;points=[[0,0.5],[1,0.5]];portConstraint=eastwest;whiteSpace=wrap;html=1;" parent="7aIhMmLS_khhMejl1p58-31" vertex="1">
          <mxGeometry y="130" width="160" height="26" as="geometry" />
        </mxCell>
        <mxCell id="7aIhMmLS_khhMejl1p58-25" value="- password : String" style="text;strokeColor=none;fillColor=none;align=left;verticalAlign=top;spacingLeft=4;spacingRight=4;overflow=hidden;rotatable=0;points=[[0,0.5],[1,0.5]];portConstraint=eastwest;whiteSpace=wrap;html=1;" parent="7aIhMmLS_khhMejl1p58-31" vertex="1">
          <mxGeometry y="156" width="160" height="26" as="geometry" />
        </mxCell>
        <mxCell id="7aIhMmLS_khhMejl1p58-26" value="- birthDate : Date" style="text;strokeColor=none;fillColor=none;align=left;verticalAlign=top;spacingLeft=4;spacingRight=4;overflow=hidden;rotatable=0;points=[[0,0.5],[1,0.5]];portConstraint=eastwest;whiteSpace=wrap;html=1;" parent="7aIhMmLS_khhMejl1p58-31" vertex="1">
          <mxGeometry y="182" width="160" height="26" as="geometry" />
        </mxCell>
        <mxCell id="7aIhMmLS_khhMejl1p58-27" value="- profilePicture: File" style="text;strokeColor=none;fillColor=none;align=left;verticalAlign=top;spacingLeft=4;spacingRight=4;overflow=hidden;rotatable=0;points=[[0,0.5],[1,0.5]];portConstraint=eastwest;whiteSpace=wrap;html=1;" parent="7aIhMmLS_khhMejl1p58-31" vertex="1">
          <mxGeometry y="208" width="160" height="26" as="geometry" />
        </mxCell>
        <mxCell id="7aIhMmLS_khhMejl1p58-28" value="- elo : integer" style="text;strokeColor=none;fillColor=none;align=left;verticalAlign=top;spacingLeft=4;spacingRight=4;overflow=hidden;rotatable=0;points=[[0,0.5],[1,0.5]];portConstraint=eastwest;whiteSpace=wrap;html=1;" parent="7aIhMmLS_khhMejl1p58-31" vertex="1">
          <mxGeometry y="234" width="160" height="26" as="geometry" />
        </mxCell>
        <mxCell id="7aIhMmLS_khhMejl1p58-88" value="- friendlist : Friendlist" style="text;strokeColor=none;fillColor=none;align=left;verticalAlign=top;spacingLeft=4;spacingRight=4;overflow=hidden;rotatable=0;points=[[0,0.5],[1,0.5]];portConstraint=eastwest;whiteSpace=wrap;html=1;" parent="7aIhMmLS_khhMejl1p58-31" vertex="1">
          <mxGeometry y="260" width="160" height="26" as="geometry" />
        </mxCell>
        <mxCell id="7aIhMmLS_khhMejl1p58-33" value="" style="line;strokeWidth=1;fillColor=none;align=left;verticalAlign=middle;spacingTop=-1;spacingLeft=3;spacingRight=3;rotatable=0;labelPosition=right;points=[];portConstraint=eastwest;strokeColor=inherit;" parent="7aIhMmLS_khhMejl1p58-31" vertex="1">
          <mxGeometry y="286" width="160" height="8" as="geometry" />
        </mxCell>
        <mxCell id="7aIhMmLS_khhMejl1p58-5" value="+ User()&amp;nbsp;" style="text;strokeColor=none;fillColor=none;align=left;verticalAlign=top;spacingLeft=4;spacingRight=4;overflow=hidden;rotatable=0;points=[[0,0.5],[1,0.5]];portConstraint=eastwest;whiteSpace=wrap;html=1;shadow=1;" parent="7aIhMmLS_khhMejl1p58-31" vertex="1">
          <mxGeometry y="294" width="160" height="26" as="geometry" />
        </mxCell>
        <mxCell id="7aIhMmLS_khhMejl1p58-30" value="+ User(vorname:String, nachname:String, email:String, birthDate:Date)&amp;nbsp;" style="text;strokeColor=none;fillColor=none;align=left;verticalAlign=top;spacingLeft=4;spacingRight=4;overflow=hidden;rotatable=0;points=[[0,0.5],[1,0.5]];portConstraint=eastwest;whiteSpace=wrap;html=1;shadow=1;" parent="7aIhMmLS_khhMejl1p58-31" vertex="1">
          <mxGeometry y="320" width="160" height="74" as="geometry" />
        </mxCell>
        <mxCell id="7aIhMmLS_khhMejl1p58-44" value="TwoFactor" style="swimlane;fontStyle=1;align=center;verticalAlign=top;childLayout=stackLayout;horizontal=1;startSize=26;horizontalStack=0;resizeParent=1;resizeParentMax=0;resizeLast=0;collapsible=1;marginBottom=0;whiteSpace=wrap;html=1;" parent="WIyWlLk6GJQsqaUBKTNV-1" vertex="1">
          <mxGeometry x="870" y="300" width="160" height="112" as="geometry" />
        </mxCell>
        <mxCell id="7aIhMmLS_khhMejl1p58-45" value="- token : String" style="text;strokeColor=none;fillColor=none;align=left;verticalAlign=top;spacingLeft=4;spacingRight=4;overflow=hidden;rotatable=0;points=[[0,0.5],[1,0.5]];portConstraint=eastwest;whiteSpace=wrap;html=1;" parent="7aIhMmLS_khhMejl1p58-44" vertex="1">
          <mxGeometry y="26" width="160" height="26" as="geometry" />
        </mxCell>
        <mxCell id="7aIhMmLS_khhMejl1p58-48" value="- id : Long" style="text;strokeColor=none;fillColor=none;align=left;verticalAlign=top;spacingLeft=4;spacingRight=4;overflow=hidden;rotatable=0;points=[[0,0.5],[1,0.5]];portConstraint=eastwest;whiteSpace=wrap;html=1;" parent="7aIhMmLS_khhMejl1p58-44" vertex="1">
          <mxGeometry y="52" width="160" height="26" as="geometry" />
        </mxCell>
        <mxCell id="7aIhMmLS_khhMejl1p58-46" value="" style="line;strokeWidth=1;fillColor=none;align=left;verticalAlign=middle;spacingTop=-1;spacingLeft=3;spacingRight=3;rotatable=0;labelPosition=right;points=[];portConstraint=eastwest;strokeColor=inherit;" parent="7aIhMmLS_khhMejl1p58-44" vertex="1">
          <mxGeometry y="78" width="160" height="8" as="geometry" />
        </mxCell>
        <mxCell id="7aIhMmLS_khhMejl1p58-47" value="+ method(type): type" style="text;strokeColor=none;fillColor=none;align=left;verticalAlign=top;spacingLeft=4;spacingRight=4;overflow=hidden;rotatable=0;points=[[0,0.5],[1,0.5]];portConstraint=eastwest;whiteSpace=wrap;html=1;" parent="7aIhMmLS_khhMejl1p58-44" vertex="1">
          <mxGeometry y="86" width="160" height="26" as="geometry" />
        </mxCell>
        <mxCell id="7aIhMmLS_khhMejl1p58-71" value="Login" style="swimlane;fontStyle=1;align=center;verticalAlign=top;childLayout=stackLayout;horizontal=1;startSize=26;horizontalStack=0;resizeParent=1;resizeParentMax=0;resizeLast=0;collapsible=1;marginBottom=0;whiteSpace=wrap;html=1;" parent="WIyWlLk6GJQsqaUBKTNV-1" vertex="1">
          <mxGeometry x="580" y="568" width="290" height="70" as="geometry" />
        </mxCell>
        <mxCell id="7aIhMmLS_khhMejl1p58-73" value="" style="line;strokeWidth=1;fillColor=none;align=left;verticalAlign=middle;spacingTop=-1;spacingLeft=3;spacingRight=3;rotatable=0;labelPosition=right;points=[];portConstraint=eastwest;strokeColor=inherit;" parent="7aIhMmLS_khhMejl1p58-71" vertex="1">
          <mxGeometry y="26" width="290" height="8" as="geometry" />
        </mxCell>
        <mxCell id="7aIhMmLS_khhMejl1p58-74" value="checkEmailAndPassword(email:String, password:String ) : boolean" style="text;strokeColor=none;fillColor=none;align=left;verticalAlign=top;spacingLeft=4;spacingRight=4;overflow=hidden;rotatable=0;points=[[0,0.5],[1,0.5]];portConstraint=eastwest;whiteSpace=wrap;html=1;" parent="7aIhMmLS_khhMejl1p58-71" vertex="1">
          <mxGeometry y="34" width="290" height="36" as="geometry" />
        </mxCell>
        <mxCell id="7aIhMmLS_khhMejl1p58-82" value="Friendlist" style="swimlane;fontStyle=1;align=center;verticalAlign=top;childLayout=stackLayout;horizontal=1;startSize=26;horizontalStack=0;resizeParent=1;resizeParentMax=0;resizeLast=0;collapsible=1;marginBottom=0;whiteSpace=wrap;html=1;" parent="WIyWlLk6GJQsqaUBKTNV-1" vertex="1">
          <mxGeometry x="200" y="190" width="190" height="252" as="geometry" />
        </mxCell>
        <mxCell id="7aIhMmLS_khhMejl1p58-86" value="- fiendlist : List&amp;lt;Long&amp;gt;" style="text;strokeColor=none;fillColor=none;align=left;verticalAlign=top;spacingLeft=4;spacingRight=4;overflow=hidden;rotatable=0;points=[[0,0.5],[1,0.5]];portConstraint=eastwest;whiteSpace=wrap;html=1;" parent="7aIhMmLS_khhMejl1p58-82" vertex="1">
          <mxGeometry y="26" width="190" height="26" as="geometry" />
        </mxCell>
        <mxCell id="7aIhMmLS_khhMejl1p58-89" value="- isPrivate : boolean" style="text;strokeColor=none;fillColor=none;align=left;verticalAlign=top;spacingLeft=4;spacingRight=4;overflow=hidden;rotatable=0;points=[[0,0.5],[1,0.5]];portConstraint=eastwest;whiteSpace=wrap;html=1;" parent="7aIhMmLS_khhMejl1p58-82" vertex="1">
          <mxGeometry y="52" width="190" height="26" as="geometry" />
        </mxCell>
        <mxCell id="7aIhMmLS_khhMejl1p58-84" value="" style="line;strokeWidth=1;fillColor=none;align=left;verticalAlign=middle;spacingTop=-1;spacingLeft=3;spacingRight=3;rotatable=0;labelPosition=right;points=[];portConstraint=eastwest;strokeColor=inherit;" parent="7aIhMmLS_khhMejl1p58-82" vertex="1">
          <mxGeometry y="78" width="190" height="8" as="geometry" />
        </mxCell>
        <mxCell id="7aIhMmLS_khhMejl1p58-127" value="+ isFriend(id:Long):boolean" style="text;strokeColor=none;fillColor=none;align=left;verticalAlign=top;spacingLeft=4;spacingRight=4;overflow=hidden;rotatable=0;points=[[0,0.5],[1,0.5]];portConstraint=eastwest;whiteSpace=wrap;html=1;" parent="7aIhMmLS_khhMejl1p58-82" vertex="1">
          <mxGeometry y="86" width="190" height="26" as="geometry" />
        </mxCell>
        <mxCell id="7aIhMmLS_khhMejl1p58-85" value="+ Friendlist()" style="text;strokeColor=none;fillColor=none;align=left;verticalAlign=top;spacingLeft=4;spacingRight=4;overflow=hidden;rotatable=0;points=[[0,0.5],[1,0.5]];portConstraint=eastwest;whiteSpace=wrap;html=1;" parent="7aIhMmLS_khhMejl1p58-82" vertex="1">
          <mxGeometry y="112" width="190" height="26" as="geometry" />
        </mxCell>
        <mxCell id="7aIhMmLS_khhMejl1p58-100" value="+ isPrivate() : void" style="text;strokeColor=none;fillColor=none;align=left;verticalAlign=top;spacingLeft=4;spacingRight=4;overflow=hidden;rotatable=0;points=[[0,0.5],[1,0.5]];portConstraint=eastwest;whiteSpace=wrap;html=1;" parent="7aIhMmLS_khhMejl1p58-82" vertex="1">
          <mxGeometry y="138" width="190" height="26" as="geometry" />
        </mxCell>
        <mxCell id="7aIhMmLS_khhMejl1p58-87" value="+ addFriend(user : User) : void" style="text;strokeColor=none;fillColor=none;align=left;verticalAlign=top;spacingLeft=4;spacingRight=4;overflow=hidden;rotatable=0;points=[[0,0.5],[1,0.5]];portConstraint=eastwest;whiteSpace=wrap;html=1;" parent="7aIhMmLS_khhMejl1p58-82" vertex="1">
          <mxGeometry y="164" width="190" height="26" as="geometry" />
        </mxCell>
        <mxCell id="7aIhMmLS_khhMejl1p58-90" value="+ deleteFriend(id:Long) : void" style="text;strokeColor=none;fillColor=none;align=left;verticalAlign=top;spacingLeft=4;spacingRight=4;overflow=hidden;rotatable=0;points=[[0,0.5],[1,0.5]];portConstraint=eastwest;whiteSpace=wrap;html=1;" parent="7aIhMmLS_khhMejl1p58-82" vertex="1">
          <mxGeometry y="190" width="190" height="26" as="geometry" />
        </mxCell>
        <mxCell id="7aIhMmLS_khhMejl1p58-91" value="+ getFriendlist() : List&amp;lt;Long&amp;gt;" style="text;strokeColor=none;fillColor=none;align=left;verticalAlign=top;spacingLeft=4;spacingRight=4;overflow=hidden;rotatable=0;points=[[0,0.5],[1,0.5]];portConstraint=eastwest;whiteSpace=wrap;html=1;" parent="7aIhMmLS_khhMejl1p58-82" vertex="1">
          <mxGeometry y="216" width="190" height="36" as="geometry" />
        </mxCell>
        <mxCell id="7aIhMmLS_khhMejl1p58-92" value="FriendlistController" style="swimlane;fontStyle=1;align=center;verticalAlign=top;childLayout=stackLayout;horizontal=1;startSize=26;horizontalStack=0;resizeParent=1;resizeParentMax=0;resizeLast=0;collapsible=1;marginBottom=0;whiteSpace=wrap;html=1;" parent="WIyWlLk6GJQsqaUBKTNV-1" vertex="1">
          <mxGeometry x="330" y="1340" width="280" height="148" as="geometry" />
        </mxCell>
        <mxCell id="7aIhMmLS_khhMejl1p58-93" value="- friendlistService : friendlistService" style="text;strokeColor=none;fillColor=none;align=left;verticalAlign=top;spacingLeft=4;spacingRight=4;overflow=hidden;rotatable=0;points=[[0,0.5],[1,0.5]];portConstraint=eastwest;whiteSpace=wrap;html=1;" parent="7aIhMmLS_khhMejl1p58-92" vertex="1">
          <mxGeometry y="26" width="280" height="34" as="geometry" />
        </mxCell>
        <mxCell id="7aIhMmLS_khhMejl1p58-94" value="" style="line;strokeWidth=1;fillColor=none;align=left;verticalAlign=middle;spacingTop=-1;spacingLeft=3;spacingRight=3;rotatable=0;labelPosition=right;points=[];portConstraint=eastwest;strokeColor=inherit;" parent="7aIhMmLS_khhMejl1p58-92" vertex="1">
          <mxGeometry y="60" width="280" height="8" as="geometry" />
        </mxCell>
        <mxCell id="7aIhMmLS_khhMejl1p58-105" value="+ addFriend(user : User) : void" style="text;strokeColor=none;fillColor=none;align=left;verticalAlign=top;spacingLeft=4;spacingRight=4;overflow=hidden;rotatable=0;points=[[0,0.5],[1,0.5]];portConstraint=eastwest;whiteSpace=wrap;html=1;" parent="7aIhMmLS_khhMejl1p58-92" vertex="1">
          <mxGeometry y="68" width="280" height="26" as="geometry" />
        </mxCell>
        <mxCell id="7aIhMmLS_khhMejl1p58-107" value="+ getFriendlist() : respsonsEntity&amp;lt;User[]&amp;gt;" style="text;strokeColor=none;fillColor=none;align=left;verticalAlign=top;spacingLeft=4;spacingRight=4;overflow=hidden;rotatable=0;points=[[0,0.5],[1,0.5]];portConstraint=eastwest;whiteSpace=wrap;html=1;" parent="7aIhMmLS_khhMejl1p58-92" vertex="1">
          <mxGeometry y="94" width="280" height="28" as="geometry" />
        </mxCell>
        <mxCell id="7aIhMmLS_khhMejl1p58-106" value="+ deleteFriend(user : User) : void" style="text;strokeColor=none;fillColor=none;align=left;verticalAlign=top;spacingLeft=4;spacingRight=4;overflow=hidden;rotatable=0;points=[[0,0.5],[1,0.5]];portConstraint=eastwest;whiteSpace=wrap;html=1;" parent="7aIhMmLS_khhMejl1p58-92" vertex="1">
          <mxGeometry y="122" width="280" height="26" as="geometry" />
        </mxCell>
        <mxCell id="7aIhMmLS_khhMejl1p58-96" value="FriendlistService" style="swimlane;fontStyle=1;align=center;verticalAlign=top;childLayout=stackLayout;horizontal=1;startSize=26;horizontalStack=0;resizeParent=1;resizeParentMax=0;resizeLast=0;collapsible=1;marginBottom=0;whiteSpace=wrap;html=1;" parent="WIyWlLk6GJQsqaUBKTNV-1" vertex="1">
          <mxGeometry x="340" y="1050" width="270" height="248" as="geometry" />
        </mxCell>
        <mxCell id="7aIhMmLS_khhMejl1p58-97" value="- repositoryUser : RepositoryUser" style="text;strokeColor=none;fillColor=none;align=left;verticalAlign=top;spacingLeft=4;spacingRight=4;overflow=hidden;rotatable=0;points=[[0,0.5],[1,0.5]];portConstraint=eastwest;whiteSpace=wrap;html=1;" parent="7aIhMmLS_khhMejl1p58-96" vertex="1">
          <mxGeometry y="26" width="270" height="26" as="geometry" />
        </mxCell>
        <mxCell id="zAFWBj6DsG3tsEUfWZgh-28" value="- REGISTRATIONSERVICE&amp;nbsp;: RegistrationService" style="text;strokeColor=none;fillColor=none;align=left;verticalAlign=top;spacingLeft=4;spacingRight=4;overflow=hidden;rotatable=0;points=[[0,0.5],[1,0.5]];portConstraint=eastwest;whiteSpace=wrap;html=1;" parent="7aIhMmLS_khhMejl1p58-96" vertex="1">
          <mxGeometry y="52" width="270" height="38" as="geometry" />
        </mxCell>
        <mxCell id="7aIhMmLS_khhMejl1p58-236" value="&lt;u&gt;- USER_NOT_FOUND_MSG : String&lt;/u&gt;" style="text;strokeColor=none;fillColor=none;align=left;verticalAlign=top;spacingLeft=4;spacingRight=4;overflow=hidden;rotatable=0;points=[[0,0.5],[1,0.5]];portConstraint=eastwest;whiteSpace=wrap;html=1;" parent="7aIhMmLS_khhMejl1p58-96" vertex="1">
          <mxGeometry y="90" width="270" height="26" as="geometry" />
        </mxCell>
        <mxCell id="7aIhMmLS_khhMejl1p58-98" value="" style="line;strokeWidth=1;fillColor=none;align=left;verticalAlign=middle;spacingTop=-1;spacingLeft=3;spacingRight=3;rotatable=0;labelPosition=right;points=[];portConstraint=eastwest;strokeColor=inherit;" parent="7aIhMmLS_khhMejl1p58-96" vertex="1">
          <mxGeometry y="116" width="270" height="8" as="geometry" />
        </mxCell>
        <mxCell id="7aIhMmLS_khhMejl1p58-102" value="+ addFriend(id:Long) : void" style="text;strokeColor=none;fillColor=none;align=left;verticalAlign=top;spacingLeft=4;spacingRight=4;overflow=hidden;rotatable=0;points=[[0,0.5],[1,0.5]];portConstraint=eastwest;whiteSpace=wrap;html=1;" parent="7aIhMmLS_khhMejl1p58-96" vertex="1">
          <mxGeometry y="124" width="270" height="26" as="geometry" />
        </mxCell>
        <mxCell id="7aIhMmLS_khhMejl1p58-103" value="+ deleteFriend(id:Long) : void" style="text;strokeColor=none;fillColor=none;align=left;verticalAlign=top;spacingLeft=4;spacingRight=4;overflow=hidden;rotatable=0;points=[[0,0.5],[1,0.5]];portConstraint=eastwest;whiteSpace=wrap;html=1;" parent="7aIhMmLS_khhMejl1p58-96" vertex="1">
          <mxGeometry y="150" width="270" height="26" as="geometry" />
        </mxCell>
        <mxCell id="7aIhMmLS_khhMejl1p58-104" value="+ getFriendlist() : List&amp;lt;Long&amp;gt; : void" style="text;strokeColor=none;fillColor=none;align=left;verticalAlign=top;spacingLeft=4;spacingRight=4;overflow=hidden;rotatable=0;points=[[0,0.5],[1,0.5]];portConstraint=eastwest;whiteSpace=wrap;html=1;" parent="7aIhMmLS_khhMejl1p58-96" vertex="1">
          <mxGeometry y="176" width="270" height="36" as="geometry" />
        </mxCell>
        <mxCell id="7aIhMmLS_khhMejl1p58-244" value="+ loadFriendByEmail (email : String) : String&amp;nbsp;" style="text;strokeColor=none;fillColor=none;align=left;verticalAlign=top;spacingLeft=4;spacingRight=4;overflow=hidden;rotatable=0;points=[[0,0.5],[1,0.5]];portConstraint=eastwest;whiteSpace=wrap;html=1;" parent="7aIhMmLS_khhMejl1p58-96" vertex="1">
          <mxGeometry y="212" width="270" height="36" as="geometry" />
        </mxCell>
        <mxCell id="7aIhMmLS_khhMejl1p58-122" value="&amp;lt;&amp;lt;interface&amp;gt;&amp;gt;&lt;br&gt;RepositoryUser" style="swimlane;fontStyle=0;childLayout=stackLayout;horizontal=1;startSize=26;fillColor=none;horizontalStack=0;resizeParent=1;resizeParentMax=0;resizeLast=0;collapsible=1;marginBottom=0;whiteSpace=wrap;html=1;" parent="WIyWlLk6GJQsqaUBKTNV-1" vertex="1">
          <mxGeometry x="-380" y="780" width="140" height="104" as="geometry" />
        </mxCell>
        <mxCell id="7aIhMmLS_khhMejl1p58-123" value="+ field: type" style="text;strokeColor=none;fillColor=none;align=left;verticalAlign=top;spacingLeft=4;spacingRight=4;overflow=hidden;rotatable=0;points=[[0,0.5],[1,0.5]];portConstraint=eastwest;whiteSpace=wrap;html=1;" parent="7aIhMmLS_khhMejl1p58-122" vertex="1">
          <mxGeometry y="26" width="140" height="26" as="geometry" />
        </mxCell>
        <mxCell id="7aIhMmLS_khhMejl1p58-124" value="+ field: type" style="text;strokeColor=none;fillColor=none;align=left;verticalAlign=top;spacingLeft=4;spacingRight=4;overflow=hidden;rotatable=0;points=[[0,0.5],[1,0.5]];portConstraint=eastwest;whiteSpace=wrap;html=1;" parent="7aIhMmLS_khhMejl1p58-122" vertex="1">
          <mxGeometry y="52" width="140" height="26" as="geometry" />
        </mxCell>
        <mxCell id="7aIhMmLS_khhMejl1p58-125" value="+ field: type" style="text;strokeColor=none;fillColor=none;align=left;verticalAlign=top;spacingLeft=4;spacingRight=4;overflow=hidden;rotatable=0;points=[[0,0.5],[1,0.5]];portConstraint=eastwest;whiteSpace=wrap;html=1;" parent="7aIhMmLS_khhMejl1p58-122" vertex="1">
          <mxGeometry y="78" width="140" height="26" as="geometry" />
        </mxCell>
        <mxCell id="7aIhMmLS_khhMejl1p58-138" value="&amp;lt;&amp;lt;enumeration&amp;gt;&amp;gt;&lt;br&gt;MatchLenght" style="swimlane;fontStyle=0;childLayout=stackLayout;horizontal=1;startSize=26;fillColor=none;horizontalStack=0;resizeParent=1;resizeParentMax=0;resizeLast=0;collapsible=1;marginBottom=0;whiteSpace=wrap;html=1;" parent="WIyWlLk6GJQsqaUBKTNV-1" vertex="1">
          <mxGeometry x="-850" y="390" width="140" height="52" as="geometry" />
        </mxCell>
        <mxCell id="7aIhMmLS_khhMejl1p58-139" value="10MIN, 5MIN, CUSTOM" style="text;strokeColor=none;fillColor=none;align=left;verticalAlign=top;spacingLeft=4;spacingRight=4;overflow=hidden;rotatable=0;points=[[0,0.5],[1,0.5]];portConstraint=eastwest;whiteSpace=wrap;html=1;" parent="7aIhMmLS_khhMejl1p58-138" vertex="1">
          <mxGeometry y="26" width="140" height="26" as="geometry" />
        </mxCell>
        <mxCell id="7aIhMmLS_khhMejl1p58-144" value="ChessGame" style="swimlane;fontStyle=1;align=center;verticalAlign=top;childLayout=stackLayout;horizontal=1;startSize=26;horizontalStack=0;resizeParent=1;resizeParentMax=0;resizeLast=0;collapsible=1;marginBottom=0;whiteSpace=wrap;html=1;" parent="WIyWlLk6GJQsqaUBKTNV-1" vertex="1">
          <mxGeometry x="-593" y="360" width="180" height="208" as="geometry" />
        </mxCell>
        <mxCell id="7aIhMmLS_khhMejl1p58-129" value="- name : String" style="text;strokeColor=none;fillColor=none;align=left;verticalAlign=top;spacingLeft=4;spacingRight=4;overflow=hidden;rotatable=0;points=[[0,0.5],[1,0.5]];portConstraint=eastwest;whiteSpace=wrap;html=1;" parent="7aIhMmLS_khhMejl1p58-144" vertex="1">
          <mxGeometry y="26" width="180" height="26" as="geometry" />
        </mxCell>
        <mxCell id="7aIhMmLS_khhMejl1p58-132" value="- gameID : Long" style="text;strokeColor=none;fillColor=none;align=left;verticalAlign=top;spacingLeft=4;spacingRight=4;overflow=hidden;rotatable=0;points=[[0,0.5],[1,0.5]];portConstraint=eastwest;whiteSpace=wrap;html=1;" parent="7aIhMmLS_khhMejl1p58-144" vertex="1">
          <mxGeometry y="52" width="180" height="26" as="geometry" />
        </mxCell>
        <mxCell id="7aIhMmLS_khhMejl1p58-130" value="- playerWhiteID : Long" style="text;strokeColor=none;fillColor=none;align=left;verticalAlign=top;spacingLeft=4;spacingRight=4;overflow=hidden;rotatable=0;points=[[0,0.5],[1,0.5]];portConstraint=eastwest;whiteSpace=wrap;html=1;" parent="7aIhMmLS_khhMejl1p58-144" vertex="1">
          <mxGeometry y="78" width="180" height="26" as="geometry" />
        </mxCell>
        <mxCell id="7aIhMmLS_khhMejl1p58-131" value="- playerBlackID : Long" style="text;strokeColor=none;fillColor=none;align=left;verticalAlign=top;spacingLeft=4;spacingRight=4;overflow=hidden;rotatable=0;points=[[0,0.5],[1,0.5]];portConstraint=eastwest;whiteSpace=wrap;html=1;" parent="7aIhMmLS_khhMejl1p58-144" vertex="1">
          <mxGeometry y="104" width="180" height="26" as="geometry" />
        </mxCell>
        <mxCell id="7aIhMmLS_khhMejl1p58-133" value="- matchLenght : MatchLenght" style="text;strokeColor=none;fillColor=none;align=left;verticalAlign=top;spacingLeft=4;spacingRight=4;overflow=hidden;rotatable=0;points=[[0,0.5],[1,0.5]];portConstraint=eastwest;whiteSpace=wrap;html=1;" parent="7aIhMmLS_khhMejl1p58-144" vertex="1">
          <mxGeometry y="130" width="180" height="26" as="geometry" />
        </mxCell>
        <mxCell id="7aIhMmLS_khhMejl1p58-146" value="" style="line;strokeWidth=1;fillColor=none;align=left;verticalAlign=middle;spacingTop=-1;spacingLeft=3;spacingRight=3;rotatable=0;labelPosition=right;points=[];portConstraint=eastwest;strokeColor=inherit;" parent="7aIhMmLS_khhMejl1p58-144" vertex="1">
          <mxGeometry y="156" width="180" height="8" as="geometry" />
        </mxCell>
        <mxCell id="7aIhMmLS_khhMejl1p58-147" value="+ setTimer(lenghtSec:int) : MatchLenght : void" style="text;strokeColor=none;fillColor=none;align=left;verticalAlign=top;spacingLeft=4;spacingRight=4;overflow=hidden;rotatable=0;points=[[0,0.5],[1,0.5]];portConstraint=eastwest;whiteSpace=wrap;html=1;" parent="7aIhMmLS_khhMejl1p58-144" vertex="1">
          <mxGeometry y="164" width="180" height="44" as="geometry" />
        </mxCell>
        <mxCell id="7aIhMmLS_khhMejl1p58-150" value="MatchmarkingService" style="swimlane;fontStyle=1;align=center;verticalAlign=top;childLayout=stackLayout;horizontal=1;startSize=26;horizontalStack=0;resizeParent=1;resizeParentMax=0;resizeLast=0;collapsible=1;marginBottom=0;whiteSpace=wrap;html=1;" parent="WIyWlLk6GJQsqaUBKTNV-1" vertex="1">
          <mxGeometry x="-760" y="960" width="290" height="250" as="geometry" />
        </mxCell>
        <mxCell id="7aIhMmLS_khhMejl1p58-151" value="- repositoryChessgame : RepositoryChessgame&lt;br&gt;" style="text;strokeColor=none;fillColor=none;align=left;verticalAlign=top;spacingLeft=4;spacingRight=4;overflow=hidden;rotatable=0;points=[[0,0.5],[1,0.5]];portConstraint=eastwest;whiteSpace=wrap;html=1;" parent="7aIhMmLS_khhMejl1p58-150" vertex="1">
          <mxGeometry y="26" width="290" height="24" as="geometry" />
        </mxCell>
        <mxCell id="7aIhMmLS_khhMejl1p58-173" value="- onGoingGame : List&amp;lt;ChessGame&amp;gt;" style="text;strokeColor=none;fillColor=none;align=left;verticalAlign=top;spacingLeft=4;spacingRight=4;overflow=hidden;rotatable=0;points=[[0,0.5],[1,0.5]];portConstraint=eastwest;whiteSpace=wrap;html=1;" parent="7aIhMmLS_khhMejl1p58-150" vertex="1">
          <mxGeometry y="50" width="290" height="30" as="geometry" />
        </mxCell>
        <mxCell id="7aIhMmLS_khhMejl1p58-174" value="- matchmaking : Queue&amp;lt;Long&amp;gt;&amp;nbsp;" style="text;strokeColor=none;fillColor=none;align=left;verticalAlign=top;spacingLeft=4;spacingRight=4;overflow=hidden;rotatable=0;points=[[0,0.5],[1,0.5]];portConstraint=eastwest;whiteSpace=wrap;html=1;" parent="7aIhMmLS_khhMejl1p58-150" vertex="1">
          <mxGeometry y="80" width="290" height="24" as="geometry" />
        </mxCell>
        <mxCell id="7aIhMmLS_khhMejl1p58-152" value="" style="line;strokeWidth=1;fillColor=none;align=left;verticalAlign=middle;spacingTop=-1;spacingLeft=3;spacingRight=3;rotatable=0;labelPosition=right;points=[];portConstraint=eastwest;strokeColor=inherit;" parent="7aIhMmLS_khhMejl1p58-150" vertex="1">
          <mxGeometry y="104" width="290" height="4" as="geometry" />
        </mxCell>
        <mxCell id="7aIhMmLS_khhMejl1p58-175" value="- startMatch (playerWhite:Long, playerBlack:Long, name:String, matchLenght:MatchLenght):void" style="text;strokeColor=none;fillColor=none;align=left;verticalAlign=top;spacingLeft=4;spacingRight=4;overflow=hidden;rotatable=0;points=[[0,0.5],[1,0.5]];portConstraint=eastwest;whiteSpace=wrap;html=1;" parent="7aIhMmLS_khhMejl1p58-150" vertex="1">
          <mxGeometry y="108" width="290" height="50" as="geometry" />
        </mxCell>
        <mxCell id="7aIhMmLS_khhMejl1p58-176" value="- startCustomMatch (playerWhite:Long, playerBlack:Long, name:String, matchLenghtMin:integer):void" style="text;strokeColor=none;fillColor=none;align=left;verticalAlign=top;spacingLeft=4;spacingRight=4;overflow=hidden;rotatable=0;points=[[0,0.5],[1,0.5]];portConstraint=eastwest;whiteSpace=wrap;html=1;" parent="7aIhMmLS_khhMejl1p58-150" vertex="1">
          <mxGeometry y="158" width="290" height="60" as="geometry" />
        </mxCell>
        <mxCell id="7aIhMmLS_khhMejl1p58-177" value="- endMatch():void" style="text;strokeColor=none;fillColor=none;align=left;verticalAlign=top;spacingLeft=4;spacingRight=4;overflow=hidden;rotatable=0;points=[[0,0.5],[1,0.5]];portConstraint=eastwest;whiteSpace=wrap;html=1;" parent="7aIhMmLS_khhMejl1p58-150" vertex="1">
          <mxGeometry y="218" width="290" height="32" as="geometry" />
        </mxCell>
        <mxCell id="7aIhMmLS_khhMejl1p58-167" value="&amp;lt;&amp;lt;interface&amp;gt;&amp;gt;&lt;br&gt;RepositoryChessgame" style="swimlane;fontStyle=0;childLayout=stackLayout;horizontal=1;startSize=26;fillColor=none;horizontalStack=0;resizeParent=1;resizeParentMax=0;resizeLast=0;collapsible=1;marginBottom=0;whiteSpace=wrap;html=1;" parent="WIyWlLk6GJQsqaUBKTNV-1" vertex="1">
          <mxGeometry x="-550" y="711" width="140" height="104" as="geometry" />
        </mxCell>
        <mxCell id="7aIhMmLS_khhMejl1p58-168" value="+ field: type" style="text;strokeColor=none;fillColor=none;align=left;verticalAlign=top;spacingLeft=4;spacingRight=4;overflow=hidden;rotatable=0;points=[[0,0.5],[1,0.5]];portConstraint=eastwest;whiteSpace=wrap;html=1;" parent="7aIhMmLS_khhMejl1p58-167" vertex="1">
          <mxGeometry y="26" width="140" height="26" as="geometry" />
        </mxCell>
        <mxCell id="7aIhMmLS_khhMejl1p58-169" value="+ field: type" style="text;strokeColor=none;fillColor=none;align=left;verticalAlign=top;spacingLeft=4;spacingRight=4;overflow=hidden;rotatable=0;points=[[0,0.5],[1,0.5]];portConstraint=eastwest;whiteSpace=wrap;html=1;" parent="7aIhMmLS_khhMejl1p58-167" vertex="1">
          <mxGeometry y="52" width="140" height="26" as="geometry" />
        </mxCell>
        <mxCell id="7aIhMmLS_khhMejl1p58-170" value="+ field: type" style="text;strokeColor=none;fillColor=none;align=left;verticalAlign=top;spacingLeft=4;spacingRight=4;overflow=hidden;rotatable=0;points=[[0,0.5],[1,0.5]];portConstraint=eastwest;whiteSpace=wrap;html=1;" parent="7aIhMmLS_khhMejl1p58-167" vertex="1">
          <mxGeometry y="78" width="140" height="26" as="geometry" />
        </mxCell>
        <mxCell id="7aIhMmLS_khhMejl1p58-187" value="MatchmarkingController" style="swimlane;fontStyle=1;align=center;verticalAlign=top;childLayout=stackLayout;horizontal=1;startSize=26;horizontalStack=0;resizeParent=1;resizeParentMax=0;resizeLast=0;collapsible=1;marginBottom=0;whiteSpace=wrap;html=1;" parent="WIyWlLk6GJQsqaUBKTNV-1" vertex="1">
          <mxGeometry x="-760" y="1312" width="290" height="238" as="geometry" />
        </mxCell>
        <mxCell id="7aIhMmLS_khhMejl1p58-188" value="- matchmarkingService : MatchmarkingService" style="text;strokeColor=none;fillColor=none;align=left;verticalAlign=top;spacingLeft=4;spacingRight=4;overflow=hidden;rotatable=0;points=[[0,0.5],[1,0.5]];portConstraint=eastwest;whiteSpace=wrap;html=1;" parent="7aIhMmLS_khhMejl1p58-187" vertex="1">
          <mxGeometry y="26" width="290" height="44" as="geometry" />
        </mxCell>
        <mxCell id="7aIhMmLS_khhMejl1p58-189" value="" style="line;strokeWidth=1;fillColor=none;align=left;verticalAlign=middle;spacingTop=-1;spacingLeft=3;spacingRight=3;rotatable=0;labelPosition=right;points=[];portConstraint=eastwest;strokeColor=inherit;" parent="7aIhMmLS_khhMejl1p58-187" vertex="1">
          <mxGeometry y="70" width="290" height="8" as="geometry" />
        </mxCell>
        <mxCell id="7aIhMmLS_khhMejl1p58-193" value="- startCustomMatch (playerWhite:Long, playerBlack:Long, name:String, matchLenghtMin:integer):void" style="text;strokeColor=none;fillColor=none;align=left;verticalAlign=top;spacingLeft=4;spacingRight=4;overflow=hidden;rotatable=0;points=[[0,0.5],[1,0.5]];portConstraint=eastwest;whiteSpace=wrap;html=1;" parent="7aIhMmLS_khhMejl1p58-187" vertex="1">
          <mxGeometry y="78" width="290" height="60" as="geometry" />
        </mxCell>
        <mxCell id="7aIhMmLS_khhMejl1p58-192" value="- endMatch():void" style="text;strokeColor=none;fillColor=none;align=left;verticalAlign=top;spacingLeft=4;spacingRight=4;overflow=hidden;rotatable=0;points=[[0,0.5],[1,0.5]];portConstraint=eastwest;whiteSpace=wrap;html=1;" parent="7aIhMmLS_khhMejl1p58-187" vertex="1">
          <mxGeometry y="138" width="290" height="32" as="geometry" />
        </mxCell>
        <mxCell id="7aIhMmLS_khhMejl1p58-191" value="- startMatch (playerWhite:Long, playerBlack:Long, name:String, matchLenght:MatchLenght):void" style="text;strokeColor=none;fillColor=none;align=left;verticalAlign=top;spacingLeft=4;spacingRight=4;overflow=hidden;rotatable=0;points=[[0,0.5],[1,0.5]];portConstraint=eastwest;whiteSpace=wrap;html=1;" parent="7aIhMmLS_khhMejl1p58-187" vertex="1">
          <mxGeometry y="170" width="290" height="68" as="geometry" />
        </mxCell>
        <mxCell id="7aIhMmLS_khhMejl1p58-213" value="&amp;lt;&amp;lt;interface&amp;gt;&amp;gt;&lt;br&gt;EmailSender" style="swimlane;fontStyle=1;align=center;verticalAlign=top;childLayout=stackLayout;horizontal=1;startSize=40;horizontalStack=0;resizeParent=1;resizeParentMax=0;resizeLast=0;collapsible=1;marginBottom=0;whiteSpace=wrap;html=1;" parent="WIyWlLk6GJQsqaUBKTNV-1" vertex="1">
          <mxGeometry x="690" y="830" width="220" height="110" as="geometry" />
        </mxCell>
        <mxCell id="7aIhMmLS_khhMejl1p58-215" value="" style="line;strokeWidth=1;fillColor=none;align=left;verticalAlign=middle;spacingTop=-1;spacingLeft=3;spacingRight=3;rotatable=0;labelPosition=right;points=[];portConstraint=eastwest;strokeColor=inherit;" parent="7aIhMmLS_khhMejl1p58-213" vertex="1">
          <mxGeometry y="40" width="220" height="8" as="geometry" />
        </mxCell>
        <mxCell id="7aIhMmLS_khhMejl1p58-216" value="+ send(to:String, email:String): void" style="text;strokeColor=none;fillColor=none;align=left;verticalAlign=top;spacingLeft=4;spacingRight=4;overflow=hidden;rotatable=0;points=[[0,0.5],[1,0.5]];portConstraint=eastwest;whiteSpace=wrap;html=1;" parent="7aIhMmLS_khhMejl1p58-213" vertex="1">
          <mxGeometry y="48" width="220" height="62" as="geometry" />
        </mxCell>
        <mxCell id="7aIhMmLS_khhMejl1p58-217" value="MailSender" style="swimlane;fontStyle=1;align=center;verticalAlign=top;childLayout=stackLayout;horizontal=1;startSize=26;horizontalStack=0;resizeParent=1;resizeParentMax=0;resizeLast=0;collapsible=1;marginBottom=0;whiteSpace=wrap;html=1;" parent="WIyWlLk6GJQsqaUBKTNV-1" vertex="1">
          <mxGeometry x="700" y="1050" width="220" height="150" as="geometry" />
        </mxCell>
        <mxCell id="7aIhMmLS_khhMejl1p58-218" value="- LOGGER : Logger" style="text;strokeColor=none;fillColor=none;align=left;verticalAlign=top;spacingLeft=4;spacingRight=4;overflow=hidden;rotatable=0;points=[[0,0.5],[1,0.5]];portConstraint=eastwest;whiteSpace=wrap;html=1;" parent="7aIhMmLS_khhMejl1p58-217" vertex="1">
          <mxGeometry y="26" width="220" height="26" as="geometry" />
        </mxCell>
        <mxCell id="7aIhMmLS_khhMejl1p58-224" value="- MAILSENDER : JavaMailSender" style="text;strokeColor=none;fillColor=none;align=left;verticalAlign=top;spacingLeft=4;spacingRight=4;overflow=hidden;rotatable=0;points=[[0,0.5],[1,0.5]];portConstraint=eastwest;whiteSpace=wrap;html=1;" parent="7aIhMmLS_khhMejl1p58-217" vertex="1">
          <mxGeometry y="52" width="220" height="48" as="geometry" />
        </mxCell>
        <mxCell id="7aIhMmLS_khhMejl1p58-219" value="" style="line;strokeWidth=1;fillColor=none;align=left;verticalAlign=middle;spacingTop=-1;spacingLeft=3;spacingRight=3;rotatable=0;labelPosition=right;points=[];portConstraint=eastwest;strokeColor=inherit;" parent="7aIhMmLS_khhMejl1p58-217" vertex="1">
          <mxGeometry y="100" width="220" height="8" as="geometry" />
        </mxCell>
        <mxCell id="7aIhMmLS_khhMejl1p58-220" value="+ send(to:String, email:String) : void" style="text;strokeColor=none;fillColor=none;align=left;verticalAlign=top;spacingLeft=4;spacingRight=4;overflow=hidden;rotatable=0;points=[[0,0.5],[1,0.5]];portConstraint=eastwest;whiteSpace=wrap;html=1;" parent="7aIhMmLS_khhMejl1p58-217" vertex="1">
          <mxGeometry y="108" width="220" height="42" as="geometry" />
        </mxCell>
        <mxCell id="7aIhMmLS_khhMejl1p58-226" value="EmailValidator" style="swimlane;fontStyle=1;align=center;verticalAlign=top;childLayout=stackLayout;horizontal=1;startSize=26;horizontalStack=0;resizeParent=1;resizeParentMax=0;resizeLast=0;collapsible=1;marginBottom=0;whiteSpace=wrap;html=1;" parent="WIyWlLk6GJQsqaUBKTNV-1" vertex="1">
          <mxGeometry x="50" y="1000" width="160" height="60" as="geometry" />
        </mxCell>
        <mxCell id="7aIhMmLS_khhMejl1p58-228" value="" style="line;strokeWidth=1;fillColor=none;align=left;verticalAlign=middle;spacingTop=-1;spacingLeft=3;spacingRight=3;rotatable=0;labelPosition=right;points=[];portConstraint=eastwest;strokeColor=inherit;" parent="7aIhMmLS_khhMejl1p58-226" vertex="1">
          <mxGeometry y="26" width="160" height="8" as="geometry" />
        </mxCell>
        <mxCell id="7aIhMmLS_khhMejl1p58-229" value="+ test(s : String) : boolean" style="text;strokeColor=none;fillColor=none;align=left;verticalAlign=top;spacingLeft=4;spacingRight=4;overflow=hidden;rotatable=0;points=[[0,0.5],[1,0.5]];portConstraint=eastwest;whiteSpace=wrap;html=1;" parent="7aIhMmLS_khhMejl1p58-226" vertex="1">
          <mxGeometry y="34" width="160" height="26" as="geometry" />
        </mxCell>
        <mxCell id="7aIhMmLS_khhMejl1p58-235" value="UserService" style="swimlane;fontStyle=1;align=center;verticalAlign=top;childLayout=stackLayout;horizontal=1;startSize=26;horizontalStack=0;resizeParent=1;resizeParentMax=0;resizeLast=0;collapsible=1;marginBottom=0;whiteSpace=wrap;html=1;" parent="WIyWlLk6GJQsqaUBKTNV-1" vertex="1">
          <mxGeometry x="-390" y="1050" width="240" height="276" as="geometry" />
        </mxCell>
        <mxCell id="7aIhMmLS_khhMejl1p58-242" value="- USERREPOSITORY : UserRepository" style="text;strokeColor=none;fillColor=none;align=left;verticalAlign=top;spacingLeft=4;spacingRight=4;overflow=hidden;rotatable=0;points=[[0,0.5],[1,0.5]];portConstraint=eastwest;whiteSpace=wrap;html=1;" parent="7aIhMmLS_khhMejl1p58-235" vertex="1">
          <mxGeometry y="26" width="240" height="26" as="geometry" />
        </mxCell>
        <mxCell id="7aIhMmLS_khhMejl1p58-243" value="- TWO_FACTOR : TwoFactor" style="text;strokeColor=none;fillColor=none;align=left;verticalAlign=top;spacingLeft=4;spacingRight=4;overflow=hidden;rotatable=0;points=[[0,0.5],[1,0.5]];portConstraint=eastwest;whiteSpace=wrap;html=1;" parent="7aIhMmLS_khhMejl1p58-235" vertex="1">
          <mxGeometry y="52" width="240" height="26" as="geometry" />
        </mxCell>
        <mxCell id="7aIhMmLS_khhMejl1p58-56" value="USERSERVICE : UserService" style="text;strokeColor=none;fillColor=none;align=left;verticalAlign=top;spacingLeft=4;spacingRight=4;overflow=hidden;rotatable=0;points=[[0,0.5],[1,0.5]];portConstraint=eastwest;whiteSpace=wrap;html=1;" parent="7aIhMmLS_khhMejl1p58-235" vertex="1">
          <mxGeometry y="78" width="240" height="26" as="geometry" />
        </mxCell>
        <mxCell id="zAFWBj6DsG3tsEUfWZgh-29" value="- REGISTRATIONSERVICE :&amp;nbsp; RegistrationService" style="text;strokeColor=none;fillColor=none;align=left;verticalAlign=top;spacingLeft=4;spacingRight=4;overflow=hidden;rotatable=0;points=[[0,0.5],[1,0.5]];portConstraint=eastwest;whiteSpace=wrap;html=1;" parent="7aIhMmLS_khhMejl1p58-235" vertex="1">
          <mxGeometry y="104" width="240" height="36" as="geometry" />
        </mxCell>
        <mxCell id="7aIhMmLS_khhMejl1p58-237" value="" style="line;strokeWidth=1;fillColor=none;align=left;verticalAlign=middle;spacingTop=-1;spacingLeft=3;spacingRight=3;rotatable=0;labelPosition=right;points=[];portConstraint=eastwest;strokeColor=inherit;" parent="7aIhMmLS_khhMejl1p58-235" vertex="1">
          <mxGeometry y="140" width="240" height="22" as="geometry" />
        </mxCell>
        <mxCell id="7aIhMmLS_khhMejl1p58-58" value="+ registerUser(request : RegistrationRequest)" style="text;strokeColor=none;fillColor=none;align=left;verticalAlign=top;spacingLeft=4;spacingRight=4;overflow=hidden;rotatable=0;points=[[0,0.5],[1,0.5]];portConstraint=eastwest;whiteSpace=wrap;html=1;" parent="7aIhMmLS_khhMejl1p58-235" vertex="1">
          <mxGeometry y="162" width="240" height="62" as="geometry" />
        </mxCell>
        <mxCell id="7aIhMmLS_khhMejl1p58-239" value="+ login(user : User)" style="text;strokeColor=none;fillColor=none;align=left;verticalAlign=top;spacingLeft=4;spacingRight=4;overflow=hidden;rotatable=0;points=[[0,0.5],[1,0.5]];portConstraint=eastwest;whiteSpace=wrap;html=1;" parent="7aIhMmLS_khhMejl1p58-235" vertex="1">
          <mxGeometry y="224" width="240" height="26" as="geometry" />
        </mxCell>
        <mxCell id="7aIhMmLS_khhMejl1p58-238" value="+ method(type): type" style="text;strokeColor=none;fillColor=none;align=left;verticalAlign=top;spacingLeft=4;spacingRight=4;overflow=hidden;rotatable=0;points=[[0,0.5],[1,0.5]];portConstraint=eastwest;whiteSpace=wrap;html=1;" parent="7aIhMmLS_khhMejl1p58-235" vertex="1">
          <mxGeometry y="250" width="240" height="26" as="geometry" />
        </mxCell>
        <mxCell id="PUsXnVWeF5Sz__0C34jH-35" value="ChesSEP" style="swimlane;fontStyle=1;align=center;verticalAlign=top;childLayout=stackLayout;horizontal=1;startSize=26;horizontalStack=0;resizeParent=1;resizeParentMax=0;resizeLast=0;collapsible=1;marginBottom=0;whiteSpace=wrap;html=1;" parent="WIyWlLk6GJQsqaUBKTNV-1" vertex="1">
          <mxGeometry x="260" y="568" width="160" height="60" as="geometry" />
        </mxCell>
        <mxCell id="PUsXnVWeF5Sz__0C34jH-36" value="" style="line;strokeWidth=1;fillColor=none;align=left;verticalAlign=middle;spacingTop=-1;spacingLeft=3;spacingRight=3;rotatable=0;labelPosition=right;points=[];portConstraint=eastwest;strokeColor=inherit;" parent="PUsXnVWeF5Sz__0C34jH-35" vertex="1">
          <mxGeometry y="26" width="160" height="8" as="geometry" />
        </mxCell>
        <mxCell id="PUsXnVWeF5Sz__0C34jH-37" value="+ main(args[]:String):void" style="text;strokeColor=none;fillColor=none;align=left;verticalAlign=top;spacingLeft=4;spacingRight=4;overflow=hidden;rotatable=0;points=[[0,0.5],[1,0.5]];portConstraint=eastwest;whiteSpace=wrap;html=1;" parent="PUsXnVWeF5Sz__0C34jH-35" vertex="1">
          <mxGeometry y="34" width="160" height="26" as="geometry" />
        </mxCell>
        <mxCell id="PUsXnVWeF5Sz__0C34jH-38" value="" style="endArrow=open;startArrow=none;endFill=0;startFill=0;endSize=8;html=1;verticalAlign=bottom;labelBackgroundColor=none;strokeWidth=1;rounded=0;exitX=0.5;exitY=0;exitDx=0;exitDy=0;entryX=0.493;entryY=0.969;entryDx=0;entryDy=0;entryPerimeter=0;" parent="WIyWlLk6GJQsqaUBKTNV-1" source="7aIhMmLS_khhMejl1p58-187" target="7aIhMmLS_khhMejl1p58-177" edge="1">
          <mxGeometry width="160" relative="1" as="geometry">
            <mxPoint x="-615.4300000000001" y="1300" as="sourcePoint" />
            <mxPoint x="-615.4300000000001" y="1160" as="targetPoint" />
          </mxGeometry>
        </mxCell>
        <mxCell id="PUsXnVWeF5Sz__0C34jH-40" value="" style="endArrow=open;startArrow=none;endFill=0;startFill=0;endSize=8;html=1;verticalAlign=bottom;labelBackgroundColor=none;strokeWidth=1;rounded=0;exitX=0.5;exitY=0;exitDx=0;exitDy=0;entryX=0.467;entryY=1.016;entryDx=0;entryDy=0;entryPerimeter=0;" parent="WIyWlLk6GJQsqaUBKTNV-1" source="7aIhMmLS_khhMejl1p58-217" target="7aIhMmLS_khhMejl1p58-216" edge="1">
          <mxGeometry width="160" relative="1" as="geometry">
            <mxPoint x="811" y="1340" as="sourcePoint" />
            <mxPoint x="809" y="1237" as="targetPoint" />
          </mxGeometry>
        </mxCell>
        <mxCell id="PUsXnVWeF5Sz__0C34jH-41" value="" style="endArrow=open;startArrow=none;endFill=0;startFill=0;endSize=8;html=1;verticalAlign=bottom;labelBackgroundColor=none;strokeWidth=1;rounded=0;exitX=0.5;exitY=0;exitDx=0;exitDy=0;entryX=0.476;entryY=1.06;entryDx=0;entryDy=0;entryPerimeter=0;" parent="WIyWlLk6GJQsqaUBKTNV-1" source="7aIhMmLS_khhMejl1p58-92" target="7aIhMmLS_khhMejl1p58-244" edge="1">
          <mxGeometry width="160" relative="1" as="geometry">
            <mxPoint x="1890" y="1060" as="sourcePoint" />
            <mxPoint x="1890" y="950" as="targetPoint" />
          </mxGeometry>
        </mxCell>
        <mxCell id="PUsXnVWeF5Sz__0C34jH-42" value="UserController" style="swimlane;fontStyle=1;align=center;verticalAlign=top;childLayout=stackLayout;horizontal=1;startSize=26;horizontalStack=0;resizeParent=1;resizeParentMax=0;resizeLast=0;collapsible=1;marginBottom=0;whiteSpace=wrap;html=1;" parent="WIyWlLk6GJQsqaUBKTNV-1" vertex="1">
          <mxGeometry x="-390" y="1358" width="240" height="142" as="geometry" />
        </mxCell>
        <mxCell id="PUsXnVWeF5Sz__0C34jH-43" value="- USERSERVICE : UserService" style="text;strokeColor=none;fillColor=none;align=left;verticalAlign=top;spacingLeft=4;spacingRight=4;overflow=hidden;rotatable=0;points=[[0,0.5],[1,0.5]];portConstraint=eastwest;whiteSpace=wrap;html=1;" parent="PUsXnVWeF5Sz__0C34jH-42" vertex="1">
          <mxGeometry y="26" width="240" height="26" as="geometry" />
        </mxCell>
        <mxCell id="PUsXnVWeF5Sz__0C34jH-45" value="" style="line;strokeWidth=1;fillColor=none;align=left;verticalAlign=middle;spacingTop=-1;spacingLeft=3;spacingRight=3;rotatable=0;labelPosition=right;points=[];portConstraint=eastwest;strokeColor=inherit;" parent="PUsXnVWeF5Sz__0C34jH-42" vertex="1">
          <mxGeometry y="52" width="240" height="8" as="geometry" />
        </mxCell>
        <mxCell id="PUsXnVWeF5Sz__0C34jH-46" value="+ login(user : User)" style="text;strokeColor=none;fillColor=none;align=left;verticalAlign=top;spacingLeft=4;spacingRight=4;overflow=hidden;rotatable=0;points=[[0,0.5],[1,0.5]];portConstraint=eastwest;whiteSpace=wrap;html=1;" parent="PUsXnVWeF5Sz__0C34jH-42" vertex="1">
          <mxGeometry y="60" width="240" height="26" as="geometry" />
        </mxCell>
        <mxCell id="PUsXnVWeF5Sz__0C34jH-47" value="+ method(type): type" style="text;strokeColor=none;fillColor=none;align=left;verticalAlign=top;spacingLeft=4;spacingRight=4;overflow=hidden;rotatable=0;points=[[0,0.5],[1,0.5]];portConstraint=eastwest;whiteSpace=wrap;html=1;" parent="PUsXnVWeF5Sz__0C34jH-42" vertex="1">
          <mxGeometry y="86" width="240" height="26" as="geometry" />
        </mxCell>
        <mxCell id="7aIhMmLS_khhMejl1p58-62" value="+ register( request : RegistrationRequest) : String" style="text;strokeColor=none;fillColor=none;align=left;verticalAlign=top;spacingLeft=4;spacingRight=4;overflow=hidden;rotatable=0;points=[[0,0.5],[1,0.5]];portConstraint=eastwest;whiteSpace=wrap;html=1;" parent="PUsXnVWeF5Sz__0C34jH-42" vertex="1">
          <mxGeometry y="112" width="240" height="30" as="geometry" />
        </mxCell>
        <mxCell id="PUsXnVWeF5Sz__0C34jH-48" value="" style="endArrow=open;startArrow=none;endFill=0;startFill=0;endSize=8;html=1;verticalAlign=bottom;labelBackgroundColor=none;strokeWidth=1;rounded=0;exitX=0.533;exitY=0.015;exitDx=0;exitDy=0;entryX=0.487;entryY=1.14;entryDx=0;entryDy=0;entryPerimeter=0;exitPerimeter=0;" parent="WIyWlLk6GJQsqaUBKTNV-1" source="PUsXnVWeF5Sz__0C34jH-42" target="7aIhMmLS_khhMejl1p58-238" edge="1">
          <mxGeometry width="160" relative="1" as="geometry">
            <mxPoint x="-630" y="1350" as="sourcePoint" />
            <mxPoint x="-631" y="1272" as="targetPoint" />
          </mxGeometry>
        </mxCell>
        <mxCell id="PUsXnVWeF5Sz__0C34jH-49" value="" style="endArrow=open;startArrow=none;endFill=0;startFill=0;endSize=8;html=1;verticalAlign=bottom;labelBackgroundColor=none;strokeWidth=1;rounded=0;exitX=0.32;exitY=-0.011;exitDx=0;exitDy=0;entryX=0.515;entryY=1.172;entryDx=0;entryDy=0;entryPerimeter=0;exitPerimeter=0;" parent="WIyWlLk6GJQsqaUBKTNV-1" source="7aIhMmLS_khhMejl1p58-235" target="7aIhMmLS_khhMejl1p58-125" edge="1">
          <mxGeometry width="160" relative="1" as="geometry">
            <mxPoint x="-262" y="1342" as="sourcePoint" />
            <mxPoint x="-263" y="1202" as="targetPoint" />
          </mxGeometry>
        </mxCell>
        <mxCell id="PUsXnVWeF5Sz__0C34jH-50" value="" style="endArrow=open;startArrow=none;endFill=0;startFill=0;endSize=8;html=1;verticalAlign=bottom;labelBackgroundColor=none;strokeWidth=1;rounded=0;exitX=0.619;exitY=1.059;exitDx=0;exitDy=0;entryX=0.5;entryY=0;entryDx=0;entryDy=0;exitPerimeter=0;" parent="WIyWlLk6GJQsqaUBKTNV-1" source="7aIhMmLS_khhMejl1p58-147" target="7aIhMmLS_khhMejl1p58-167" edge="1">
          <mxGeometry width="160" relative="1" as="geometry">
            <mxPoint x="-213" y="1054" as="sourcePoint" />
            <mxPoint x="-218" y="898" as="targetPoint" />
          </mxGeometry>
        </mxCell>
        <mxCell id="PUsXnVWeF5Sz__0C34jH-51" value="" style="endArrow=open;startArrow=none;endFill=0;startFill=0;endSize=8;html=1;verticalAlign=bottom;labelBackgroundColor=none;strokeWidth=1;rounded=0;exitX=0;exitY=0.5;exitDx=0;exitDy=0;entryX=1;entryY=0.5;entryDx=0;entryDy=0;" parent="WIyWlLk6GJQsqaUBKTNV-1" source="7aIhMmLS_khhMejl1p58-132" target="7aIhMmLS_khhMejl1p58-139" edge="1">
          <mxGeometry width="160" relative="1" as="geometry">
            <mxPoint x="-472" y="581" as="sourcePoint" />
            <mxPoint x="-470" y="721" as="targetPoint" />
          </mxGeometry>
        </mxCell>
        <mxCell id="PUsXnVWeF5Sz__0C34jH-67" value="" style="endArrow=none;startArrow=diamondThin;endFill=0;startFill=1;html=1;verticalAlign=bottom;labelBackgroundColor=none;strokeWidth=1;startSize=8;endSize=8;rounded=0;exitX=1.016;exitY=0.035;exitDx=0;exitDy=0;exitPerimeter=0;entryX=0;entryY=0.077;entryDx=0;entryDy=0;entryPerimeter=0;" parent="WIyWlLk6GJQsqaUBKTNV-1" source="7aIhMmLS_khhMejl1p58-1" target="7aIhMmLS_khhMejl1p58-89" edge="1">
          <mxGeometry width="160" relative="1" as="geometry">
            <mxPoint x="20" y="280" as="sourcePoint" />
            <mxPoint x="180" y="280" as="targetPoint" />
          </mxGeometry>
        </mxCell>
        <mxCell id="PUsXnVWeF5Sz__0C34jH-68" value="0..n" style="edgeLabel;html=1;align=center;verticalAlign=middle;resizable=0;points=[];" parent="PUsXnVWeF5Sz__0C34jH-67" vertex="1" connectable="0">
          <mxGeometry x="-0.8114" y="3" relative="1" as="geometry">
            <mxPoint x="-7" y="-10" as="offset" />
          </mxGeometry>
        </mxCell>
        <mxCell id="PUsXnVWeF5Sz__0C34jH-69" value="1" style="edgeLabel;html=1;align=center;verticalAlign=middle;resizable=0;points=[];" parent="PUsXnVWeF5Sz__0C34jH-67" vertex="1" connectable="0">
          <mxGeometry x="0.9116" y="-1" relative="1" as="geometry">
            <mxPoint y="-16" as="offset" />
          </mxGeometry>
        </mxCell>
        <mxCell id="PUsXnVWeF5Sz__0C34jH-74" value="" style="endArrow=open;startArrow=none;endFill=0;startFill=0;endSize=8;html=1;verticalAlign=bottom;labelBackgroundColor=none;strokeWidth=1;rounded=0;exitX=1.004;exitY=-0.163;exitDx=0;exitDy=0;entryX=0.561;entryY=1.041;entryDx=0;entryDy=0;entryPerimeter=0;exitPerimeter=0;" parent="WIyWlLk6GJQsqaUBKTNV-1" source="PUsXnVWeF5Sz__0C34jH-46" target="7aIhMmLS_khhMejl1p58-30" edge="1">
          <mxGeometry width="160" relative="1" as="geometry">
            <mxPoint x="-40" y="1383" as="sourcePoint" />
            <mxPoint x="-90" y="597" as="targetPoint" />
            <Array as="points">
              <mxPoint x="-120" y="1386" />
            </Array>
          </mxGeometry>
        </mxCell>
        <mxCell id="PUsXnVWeF5Sz__0C34jH-75" value="" style="endArrow=none;startArrow=diamondThin;endFill=0;startFill=1;html=1;verticalAlign=bottom;labelBackgroundColor=none;strokeWidth=1;startSize=8;endSize=8;rounded=0;exitX=0.459;exitY=1.202;exitDx=0;exitDy=0;exitPerimeter=0;" parent="WIyWlLk6GJQsqaUBKTNV-1" source="PUsXnVWeF5Sz__0C34jH-37" target="7aIhMmLS_khhMejl1p58-235" edge="1">
          <mxGeometry width="160" relative="1" as="geometry">
            <mxPoint x="-50" y="530" as="sourcePoint" />
            <mxPoint x="212.80000000000018" y="1485.6440000000002" as="targetPoint" />
            <Array as="points" />
          </mxGeometry>
        </mxCell>
        <mxCell id="PUsXnVWeF5Sz__0C34jH-76" value="0..n" style="edgeLabel;html=1;align=center;verticalAlign=middle;resizable=0;points=[];" parent="PUsXnVWeF5Sz__0C34jH-75" vertex="1" connectable="0">
          <mxGeometry x="-0.8114" y="3" relative="1" as="geometry">
            <mxPoint x="-16" y="-28" as="offset" />
          </mxGeometry>
        </mxCell>
        <mxCell id="PUsXnVWeF5Sz__0C34jH-77" value="1" style="edgeLabel;html=1;align=center;verticalAlign=middle;resizable=0;points=[];" parent="PUsXnVWeF5Sz__0C34jH-75" vertex="1" connectable="0">
          <mxGeometry x="0.9116" y="-1" relative="1" as="geometry">
            <mxPoint x="-6" y="-14" as="offset" />
          </mxGeometry>
        </mxCell>
        <mxCell id="PUsXnVWeF5Sz__0C34jH-78" value="" style="endArrow=none;startArrow=diamondThin;endFill=0;startFill=1;html=1;verticalAlign=bottom;labelBackgroundColor=none;strokeWidth=1;startSize=8;endSize=8;rounded=0;entryX=0.577;entryY=-0.002;entryDx=0;entryDy=0;entryPerimeter=0;exitX=0.022;exitY=1.062;exitDx=0;exitDy=0;exitPerimeter=0;" parent="WIyWlLk6GJQsqaUBKTNV-1" source="7aIhMmLS_khhMejl1p58-147" target="7aIhMmLS_khhMejl1p58-150" edge="1">
          <mxGeometry width="160" relative="1" as="geometry">
            <mxPoint x="-812" y="640" as="sourcePoint" />
            <mxPoint x="-920" y="1108" as="targetPoint" />
            <Array as="points" />
          </mxGeometry>
        </mxCell>
        <mxCell id="PUsXnVWeF5Sz__0C34jH-79" value="0..n" style="edgeLabel;html=1;align=center;verticalAlign=middle;resizable=0;points=[];" parent="PUsXnVWeF5Sz__0C34jH-78" vertex="1" connectable="0">
          <mxGeometry x="-0.8114" y="3" relative="1" as="geometry">
            <mxPoint x="-24" y="-22" as="offset" />
          </mxGeometry>
        </mxCell>
        <mxCell id="PUsXnVWeF5Sz__0C34jH-80" value="1" style="edgeLabel;html=1;align=center;verticalAlign=middle;resizable=0;points=[];" parent="PUsXnVWeF5Sz__0C34jH-78" vertex="1" connectable="0">
          <mxGeometry x="0.9116" y="-1" relative="1" as="geometry">
            <mxPoint x="-15" y="-2" as="offset" />
          </mxGeometry>
        </mxCell>
        <mxCell id="PUsXnVWeF5Sz__0C34jH-83" value="" style="endArrow=none;startArrow=diamondThin;endFill=0;startFill=1;html=1;verticalAlign=bottom;labelBackgroundColor=none;strokeWidth=1;startSize=8;endSize=8;rounded=0;exitX=1.014;exitY=0.531;exitDx=0;exitDy=0;exitPerimeter=0;entryX=0.003;entryY=0.278;entryDx=0;entryDy=0;entryPerimeter=0;" parent="WIyWlLk6GJQsqaUBKTNV-1" source="PUsXnVWeF5Sz__0C34jH-36" target="7aIhMmLS_khhMejl1p58-74" edge="1">
          <mxGeometry width="160" relative="1" as="geometry">
            <mxPoint x="331" y="576" as="sourcePoint" />
            <mxPoint x="-46" y="518" as="targetPoint" />
            <Array as="points" />
          </mxGeometry>
        </mxCell>
        <mxCell id="PUsXnVWeF5Sz__0C34jH-84" value="0..n" style="edgeLabel;html=1;align=center;verticalAlign=middle;resizable=0;points=[];" parent="PUsXnVWeF5Sz__0C34jH-83" vertex="1" connectable="0">
          <mxGeometry x="-0.8114" y="3" relative="1" as="geometry">
            <mxPoint x="3" y="-12" as="offset" />
          </mxGeometry>
        </mxCell>
        <mxCell id="PUsXnVWeF5Sz__0C34jH-85" value="0..n" style="edgeLabel;html=1;align=center;verticalAlign=middle;resizable=0;points=[];" parent="PUsXnVWeF5Sz__0C34jH-83" vertex="1" connectable="0">
          <mxGeometry x="0.9116" y="-1" relative="1" as="geometry">
            <mxPoint x="-14" y="-19" as="offset" />
          </mxGeometry>
        </mxCell>
        <mxCell id="PUsXnVWeF5Sz__0C34jH-87" value="" style="endArrow=open;startArrow=none;endFill=0;startFill=0;endSize=8;html=1;verticalAlign=bottom;labelBackgroundColor=none;strokeWidth=1;rounded=0;exitX=1.016;exitY=0.035;exitDx=0;exitDy=0;entryX=0.459;entryY=1.144;entryDx=0;entryDy=0;entryPerimeter=0;exitPerimeter=0;" parent="WIyWlLk6GJQsqaUBKTNV-1" source="7aIhMmLS_khhMejl1p58-74" target="7aIhMmLS_khhMejl1p58-47" edge="1">
          <mxGeometry width="160" relative="1" as="geometry">
            <mxPoint x="990" y="584" as="sourcePoint" />
            <mxPoint x="990" y="474" as="targetPoint" />
          </mxGeometry>
        </mxCell>
        <mxCell id="PUsXnVWeF5Sz__0C34jH-88" value="" style="endArrow=open;startArrow=none;endFill=0;startFill=0;endSize=8;html=1;verticalAlign=bottom;labelBackgroundColor=none;strokeWidth=1;rounded=0;exitX=0.043;exitY=-0.009;exitDx=0;exitDy=0;exitPerimeter=0;entryX=1;entryY=0.5;entryDx=0;entryDy=0;" parent="WIyWlLk6GJQsqaUBKTNV-1" source="7aIhMmLS_khhMejl1p58-92" target="7aIhMmLS_khhMejl1p58-91" edge="1">
          <mxGeometry width="160" relative="1" as="geometry">
            <mxPoint x="381" y="1338" as="sourcePoint" />
            <mxPoint x="320" y="1260" as="targetPoint" />
            <Array as="points">
              <mxPoint x="320" y="1160" />
              <mxPoint x="330" y="1010" />
              <mxPoint x="400" y="870" />
              <mxPoint x="910" y="650" />
              <mxPoint x="1060" y="480" />
              <mxPoint x="1130" y="230" />
              <mxPoint x="680" y="270" />
            </Array>
          </mxGeometry>
        </mxCell>
        <mxCell id="PUsXnVWeF5Sz__0C34jH-89" value="TwoFactorService" style="swimlane;fontStyle=1;align=center;verticalAlign=top;childLayout=stackLayout;horizontal=1;startSize=26;horizontalStack=0;resizeParent=1;resizeParentMax=0;resizeLast=0;collapsible=1;marginBottom=0;whiteSpace=wrap;html=1;" parent="WIyWlLk6GJQsqaUBKTNV-1" vertex="1">
          <mxGeometry x="1020" y="1050" width="250" height="120" as="geometry" />
        </mxCell>
        <mxCell id="PUsXnVWeF5Sz__0C34jH-90" value="- token : String" style="text;strokeColor=none;fillColor=none;align=left;verticalAlign=top;spacingLeft=4;spacingRight=4;overflow=hidden;rotatable=0;points=[[0,0.5],[1,0.5]];portConstraint=eastwest;whiteSpace=wrap;html=1;" parent="PUsXnVWeF5Sz__0C34jH-89" vertex="1">
          <mxGeometry y="26" width="250" height="26" as="geometry" />
        </mxCell>
        <mxCell id="PUsXnVWeF5Sz__0C34jH-91" value="- id : Long" style="text;strokeColor=none;fillColor=none;align=left;verticalAlign=top;spacingLeft=4;spacingRight=4;overflow=hidden;rotatable=0;points=[[0,0.5],[1,0.5]];portConstraint=eastwest;whiteSpace=wrap;html=1;" parent="PUsXnVWeF5Sz__0C34jH-89" vertex="1">
          <mxGeometry y="52" width="250" height="26" as="geometry" />
        </mxCell>
        <mxCell id="PUsXnVWeF5Sz__0C34jH-92" value="" style="line;strokeWidth=1;fillColor=none;align=left;verticalAlign=middle;spacingTop=-1;spacingLeft=3;spacingRight=3;rotatable=0;labelPosition=right;points=[];portConstraint=eastwest;strokeColor=inherit;" parent="PUsXnVWeF5Sz__0C34jH-89" vertex="1">
          <mxGeometry y="78" width="250" height="8" as="geometry" />
        </mxCell>
        <mxCell id="PUsXnVWeF5Sz__0C34jH-102" value="- check2FA (token:TwoFactor) : boolean" style="text;strokeColor=none;fillColor=none;align=left;verticalAlign=top;spacingLeft=4;spacingRight=4;overflow=hidden;rotatable=0;points=[[0,0.5],[1,0.5]];portConstraint=eastwest;whiteSpace=wrap;html=1;" parent="PUsXnVWeF5Sz__0C34jH-89" vertex="1">
          <mxGeometry y="86" width="250" height="34" as="geometry" />
        </mxCell>
        <mxCell id="PUsXnVWeF5Sz__0C34jH-94" value="TwoFactorController" style="swimlane;fontStyle=1;align=center;verticalAlign=top;childLayout=stackLayout;horizontal=1;startSize=26;horizontalStack=0;resizeParent=1;resizeParentMax=0;resizeLast=0;collapsible=1;marginBottom=0;whiteSpace=wrap;html=1;" parent="WIyWlLk6GJQsqaUBKTNV-1" vertex="1">
          <mxGeometry x="1030" y="1340" width="240" height="88" as="geometry" />
        </mxCell>
        <mxCell id="PUsXnVWeF5Sz__0C34jH-95" value="- twoFactorService : TwoFactorService" style="text;strokeColor=none;fillColor=none;align=left;verticalAlign=top;spacingLeft=4;spacingRight=4;overflow=hidden;rotatable=0;points=[[0,0.5],[1,0.5]];portConstraint=eastwest;whiteSpace=wrap;html=1;" parent="PUsXnVWeF5Sz__0C34jH-94" vertex="1">
          <mxGeometry y="26" width="240" height="26" as="geometry" />
        </mxCell>
        <mxCell id="PUsXnVWeF5Sz__0C34jH-97" value="" style="line;strokeWidth=1;fillColor=none;align=left;verticalAlign=middle;spacingTop=-1;spacingLeft=3;spacingRight=3;rotatable=0;labelPosition=right;points=[];portConstraint=eastwest;strokeColor=inherit;" parent="PUsXnVWeF5Sz__0C34jH-94" vertex="1">
          <mxGeometry y="52" width="240" height="10" as="geometry" />
        </mxCell>
        <mxCell id="PUsXnVWeF5Sz__0C34jH-100" value="- check2FA (token:TwoFactor) : boolean" style="text;strokeColor=none;fillColor=none;align=left;verticalAlign=top;spacingLeft=4;spacingRight=4;overflow=hidden;rotatable=0;points=[[0,0.5],[1,0.5]];portConstraint=eastwest;whiteSpace=wrap;html=1;" parent="PUsXnVWeF5Sz__0C34jH-94" vertex="1">
          <mxGeometry y="62" width="240" height="26" as="geometry" />
        </mxCell>
        <mxCell id="PUsXnVWeF5Sz__0C34jH-103" value="" style="endArrow=open;startArrow=none;endFill=0;startFill=0;endSize=8;html=1;verticalAlign=bottom;labelBackgroundColor=none;strokeWidth=1;rounded=0;exitX=0.474;exitY=0.011;exitDx=0;exitDy=0;entryX=0.486;entryY=1.029;entryDx=0;entryDy=0;entryPerimeter=0;exitPerimeter=0;" parent="WIyWlLk6GJQsqaUBKTNV-1" source="PUsXnVWeF5Sz__0C34jH-94" target="PUsXnVWeF5Sz__0C34jH-102" edge="1">
          <mxGeometry width="160" relative="1" as="geometry">
            <mxPoint x="480" y="1350" as="sourcePoint" />
            <mxPoint x="479" y="1272" as="targetPoint" />
          </mxGeometry>
        </mxCell>
        <mxCell id="PUsXnVWeF5Sz__0C34jH-104" value="" style="endArrow=open;startArrow=none;endFill=0;startFill=0;endSize=8;html=1;verticalAlign=bottom;labelBackgroundColor=none;strokeWidth=1;rounded=0;exitX=0.892;exitY=0.005;exitDx=0;exitDy=0;entryX=0.915;entryY=1.089;entryDx=0;entryDy=0;entryPerimeter=0;exitPerimeter=0;" parent="WIyWlLk6GJQsqaUBKTNV-1" source="PUsXnVWeF5Sz__0C34jH-94" target="7aIhMmLS_khhMejl1p58-47" edge="1">
          <mxGeometry width="160" relative="1" as="geometry">
            <mxPoint x="1154" y="1351" as="sourcePoint" />
            <mxPoint x="1152" y="1181" as="targetPoint" />
            <Array as="points">
              <mxPoint x="1340" y="1090" />
            </Array>
          </mxGeometry>
        </mxCell>
        <mxCell id="PUsXnVWeF5Sz__0C34jH-105" value="" style="endArrow=none;html=1;rounded=0;align=center;verticalAlign=top;endFill=0;labelBackgroundColor=none;exitX=0.034;exitY=-0.014;exitDx=0;exitDy=0;entryX=1;entryY=0.5;entryDx=0;entryDy=0;exitPerimeter=0;" parent="WIyWlLk6GJQsqaUBKTNV-1" source="7aIhMmLS_khhMejl1p58-71" target="7aIhMmLS_khhMejl1p58-27" edge="1">
          <mxGeometry x="0.0016" y="21" relative="1" as="geometry">
            <mxPoint x="-403" y="370" as="sourcePoint" />
            <mxPoint x="-210" y="369" as="targetPoint" />
            <mxPoint as="offset" />
          </mxGeometry>
        </mxCell>
        <mxCell id="PUsXnVWeF5Sz__0C34jH-106" value="" style="resizable=0;html=1;align=left;verticalAlign=bottom;labelBackgroundColor=none;" parent="PUsXnVWeF5Sz__0C34jH-105" connectable="0" vertex="1">
          <mxGeometry x="-1" relative="1" as="geometry" />
        </mxCell>
        <mxCell id="PUsXnVWeF5Sz__0C34jH-108" value="" style="resizable=0;html=1;align=right;verticalAlign=bottom;labelBackgroundColor=none;" parent="PUsXnVWeF5Sz__0C34jH-105" connectable="0" vertex="1">
          <mxGeometry x="1" relative="1" as="geometry" />
        </mxCell>
        <mxCell id="PUsXnVWeF5Sz__0C34jH-111" value="log in" style="edgeLabel;html=1;align=center;verticalAlign=middle;resizable=0;points=[];" parent="PUsXnVWeF5Sz__0C34jH-105" vertex="1" connectable="0">
          <mxGeometry x="-0.031" y="-1" relative="1" as="geometry">
            <mxPoint as="offset" />
          </mxGeometry>
        </mxCell>
        <mxCell id="PUsXnVWeF5Sz__0C34jH-112" value="1" style="edgeLabel;html=1;align=center;verticalAlign=middle;resizable=0;points=[];" parent="PUsXnVWeF5Sz__0C34jH-105" vertex="1" connectable="0">
          <mxGeometry x="0.9519" relative="1" as="geometry">
            <mxPoint y="-15" as="offset" />
          </mxGeometry>
        </mxCell>
        <mxCell id="PUsXnVWeF5Sz__0C34jH-113" value="1..n" style="edgeLabel;html=1;align=center;verticalAlign=middle;resizable=0;points=[];" parent="PUsXnVWeF5Sz__0C34jH-105" vertex="1" connectable="0">
          <mxGeometry x="-0.9435" y="1" relative="1" as="geometry">
            <mxPoint y="-14" as="offset" />
          </mxGeometry>
        </mxCell>
        <mxCell id="PUsXnVWeF5Sz__0C34jH-123" value="" style="endArrow=none;startArrow=diamondThin;endFill=0;startFill=1;html=1;verticalAlign=bottom;labelBackgroundColor=none;strokeWidth=1;startSize=8;endSize=8;rounded=0;entryX=0.001;entryY=0.192;entryDx=0;entryDy=0;entryPerimeter=0;exitX=0.448;exitY=-0.015;exitDx=0;exitDy=0;exitPerimeter=0;" parent="WIyWlLk6GJQsqaUBKTNV-1" source="7aIhMmLS_khhMejl1p58-82" target="7aIhMmLS_khhMejl1p58-193" edge="1">
          <mxGeometry width="160" relative="1" as="geometry">
            <mxPoint x="-416" y="1053" as="sourcePoint" />
            <mxPoint x="-420" y="1442" as="targetPoint" />
            <Array as="points">
              <mxPoint x="-340" y="160" />
              <mxPoint x="-980" y="160" />
            </Array>
          </mxGeometry>
        </mxCell>
        <mxCell id="PUsXnVWeF5Sz__0C34jH-124" value="1" style="edgeLabel;html=1;align=center;verticalAlign=middle;resizable=0;points=[];" parent="PUsXnVWeF5Sz__0C34jH-123" vertex="1" connectable="0">
          <mxGeometry x="-0.8114" y="3" relative="1" as="geometry">
            <mxPoint x="154" y="-9" as="offset" />
          </mxGeometry>
        </mxCell>
        <mxCell id="PUsXnVWeF5Sz__0C34jH-125" value="1..n" style="edgeLabel;html=1;align=center;verticalAlign=middle;resizable=0;points=[];" parent="PUsXnVWeF5Sz__0C34jH-123" vertex="1" connectable="0">
          <mxGeometry x="0.9116" y="-1" relative="1" as="geometry">
            <mxPoint x="-16" y="-2" as="offset" />
          </mxGeometry>
        </mxCell>
        <mxCell id="PUsXnVWeF5Sz__0C34jH-126" value="search for game" style="edgeLabel;html=1;align=center;verticalAlign=middle;resizable=0;points=[];" parent="PUsXnVWeF5Sz__0C34jH-123" vertex="1" connectable="0">
          <mxGeometry x="-0.0923" relative="1" as="geometry">
            <mxPoint x="-59" y="30" as="offset" />
          </mxGeometry>
        </mxCell>
        <mxCell id="zAFWBj6DsG3tsEUfWZgh-0" value="" style="endArrow=none;startArrow=diamondThin;endFill=0;startFill=1;html=1;verticalAlign=bottom;labelBackgroundColor=none;strokeWidth=1;startSize=8;endSize=8;rounded=0;entryX=0.813;entryY=-0.011;entryDx=0;entryDy=0;entryPerimeter=0;exitX=0.764;exitY=1.163;exitDx=0;exitDy=0;exitPerimeter=0;" parent="WIyWlLk6GJQsqaUBKTNV-1" source="PUsXnVWeF5Sz__0C34jH-37" target="7aIhMmLS_khhMejl1p58-92" edge="1">
          <mxGeometry width="160" relative="1" as="geometry">
            <mxPoint x="468" y="670" as="sourcePoint" />
            <mxPoint x="360" y="1138" as="targetPoint" />
            <Array as="points">
              <mxPoint x="630" y="1040" />
              <mxPoint x="630" y="1310" />
            </Array>
          </mxGeometry>
        </mxCell>
        <mxCell id="zAFWBj6DsG3tsEUfWZgh-1" value="0..n" style="edgeLabel;html=1;align=center;verticalAlign=middle;resizable=0;points=[];" parent="zAFWBj6DsG3tsEUfWZgh-0" vertex="1" connectable="0">
          <mxGeometry x="-0.8114" y="3" relative="1" as="geometry">
            <mxPoint x="-19" y="-28" as="offset" />
          </mxGeometry>
        </mxCell>
        <mxCell id="zAFWBj6DsG3tsEUfWZgh-2" value="1" style="edgeLabel;html=1;align=center;verticalAlign=middle;resizable=0;points=[];" parent="zAFWBj6DsG3tsEUfWZgh-0" vertex="1" connectable="0">
          <mxGeometry x="0.9116" y="-1" relative="1" as="geometry">
            <mxPoint x="-21" y="-4" as="offset" />
          </mxGeometry>
        </mxCell>
        <mxCell id="zAFWBj6DsG3tsEUfWZgh-3" value="" style="endArrow=none;html=1;rounded=0;align=center;verticalAlign=top;endFill=0;labelBackgroundColor=none;exitX=-0.018;exitY=0.214;exitDx=0;exitDy=0;exitPerimeter=0;entryX=1;entryY=0.5;entryDx=0;entryDy=0;" parent="WIyWlLk6GJQsqaUBKTNV-1" source="7aIhMmLS_khhMejl1p58-224" target="7aIhMmLS_khhMejl1p58-236" edge="1">
          <mxGeometry x="0.0016" y="21" relative="1" as="geometry">
            <mxPoint x="700" y="1006" as="sourcePoint" />
            <mxPoint x="50" y="850" as="targetPoint" />
            <mxPoint as="offset" />
          </mxGeometry>
        </mxCell>
        <mxCell id="zAFWBj6DsG3tsEUfWZgh-4" value="" style="resizable=0;html=1;align=left;verticalAlign=bottom;labelBackgroundColor=none;" parent="zAFWBj6DsG3tsEUfWZgh-3" connectable="0" vertex="1">
          <mxGeometry x="-1" relative="1" as="geometry" />
        </mxCell>
        <mxCell id="zAFWBj6DsG3tsEUfWZgh-6" value="" style="resizable=0;html=1;align=right;verticalAlign=bottom;labelBackgroundColor=none;" parent="zAFWBj6DsG3tsEUfWZgh-3" connectable="0" vertex="1">
          <mxGeometry x="1" relative="1" as="geometry" />
        </mxCell>
        <mxCell id="zAFWBj6DsG3tsEUfWZgh-8" value="response" style="edgeLabel;html=1;align=center;verticalAlign=middle;resizable=0;points=[];" parent="zAFWBj6DsG3tsEUfWZgh-3" vertex="1" connectable="0">
          <mxGeometry x="-0.031" y="-1" relative="1" as="geometry">
            <mxPoint x="11" as="offset" />
          </mxGeometry>
        </mxCell>
        <mxCell id="zAFWBj6DsG3tsEUfWZgh-9" value="1" style="edgeLabel;html=1;align=center;verticalAlign=middle;resizable=0;points=[];" parent="zAFWBj6DsG3tsEUfWZgh-3" vertex="1" connectable="0">
          <mxGeometry x="0.9519" relative="1" as="geometry">
            <mxPoint x="8" y="-22" as="offset" />
          </mxGeometry>
        </mxCell>
        <mxCell id="zAFWBj6DsG3tsEUfWZgh-10" value="1" style="edgeLabel;html=1;align=center;verticalAlign=middle;resizable=0;points=[];" parent="zAFWBj6DsG3tsEUfWZgh-3" vertex="1" connectable="0">
          <mxGeometry x="-0.9435" y="1" relative="1" as="geometry">
            <mxPoint x="-4" y="-14" as="offset" />
          </mxGeometry>
        </mxCell>
        <mxCell id="zAFWBj6DsG3tsEUfWZgh-20" value="" style="endArrow=none;html=1;rounded=0;align=center;verticalAlign=top;endFill=0;labelBackgroundColor=none;exitX=0;exitY=0.5;exitDx=0;exitDy=0;entryX=1.021;entryY=0.672;entryDx=0;entryDy=0;entryPerimeter=0;" parent="WIyWlLk6GJQsqaUBKTNV-1" source="PUsXnVWeF5Sz__0C34jH-91" target="7aIhMmLS_khhMejl1p58-224" edge="1">
          <mxGeometry x="0.0016" y="21" relative="1" as="geometry">
            <mxPoint x="253" y="1253" as="sourcePoint" />
            <mxPoint x="150" y="1250" as="targetPoint" />
            <mxPoint as="offset" />
          </mxGeometry>
        </mxCell>
        <mxCell id="zAFWBj6DsG3tsEUfWZgh-21" value="" style="resizable=0;html=1;align=left;verticalAlign=bottom;labelBackgroundColor=none;" parent="zAFWBj6DsG3tsEUfWZgh-20" connectable="0" vertex="1">
          <mxGeometry x="-1" relative="1" as="geometry" />
        </mxCell>
        <mxCell id="zAFWBj6DsG3tsEUfWZgh-23" value="" style="resizable=0;html=1;align=right;verticalAlign=bottom;labelBackgroundColor=none;" parent="zAFWBj6DsG3tsEUfWZgh-20" connectable="0" vertex="1">
          <mxGeometry x="1" relative="1" as="geometry" />
        </mxCell>
        <mxCell id="zAFWBj6DsG3tsEUfWZgh-25" value="response" style="edgeLabel;html=1;align=center;verticalAlign=middle;resizable=0;points=[];" parent="zAFWBj6DsG3tsEUfWZgh-20" vertex="1" connectable="0">
          <mxGeometry x="-0.031" y="-1" relative="1" as="geometry">
            <mxPoint as="offset" />
          </mxGeometry>
        </mxCell>
        <mxCell id="zAFWBj6DsG3tsEUfWZgh-26" value="1" style="edgeLabel;html=1;align=center;verticalAlign=middle;resizable=0;points=[];" parent="zAFWBj6DsG3tsEUfWZgh-20" vertex="1" connectable="0">
          <mxGeometry x="0.9519" relative="1" as="geometry">
            <mxPoint x="8" y="-15" as="offset" />
          </mxGeometry>
        </mxCell>
        <mxCell id="zAFWBj6DsG3tsEUfWZgh-27" value="1" style="edgeLabel;html=1;align=center;verticalAlign=middle;resizable=0;points=[];" parent="zAFWBj6DsG3tsEUfWZgh-20" vertex="1" connectable="0">
          <mxGeometry x="-0.9435" y="1" relative="1" as="geometry">
            <mxPoint x="-4" y="-14" as="offset" />
          </mxGeometry>
        </mxCell>
        <mxCell id="zAFWBj6DsG3tsEUfWZgh-30" value="" style="endArrow=open;startArrow=none;endFill=0;startFill=0;endSize=8;html=1;verticalAlign=bottom;labelBackgroundColor=none;strokeWidth=1;rounded=0;exitX=0.797;exitY=-0.047;exitDx=0;exitDy=0;entryX=0.376;entryY=1.041;entryDx=0;entryDy=0;entryPerimeter=0;exitPerimeter=0;" parent="WIyWlLk6GJQsqaUBKTNV-1" source="7aIhMmLS_khhMejl1p58-235" target="7aIhMmLS_khhMejl1p58-30" edge="1">
          <mxGeometry width="160" relative="1" as="geometry">
            <mxPoint x="-149" y="1396" as="sourcePoint" />
            <mxPoint x="-120" y="597" as="targetPoint" />
            <Array as="points" />
          </mxGeometry>
        </mxCell>
        <mxCell id="ZHExhOOGHCl3_tG_iDXk-1" value="" style="endArrow=none;html=1;rounded=0;align=center;verticalAlign=top;endFill=0;labelBackgroundColor=none;exitX=1.012;exitY=-0.139;exitDx=0;exitDy=0;entryX=0.462;entryY=0.984;entryDx=0;entryDy=0;exitPerimeter=0;entryPerimeter=0;" edge="1" parent="WIyWlLk6GJQsqaUBKTNV-1" source="zAFWBj6DsG3tsEUfWZgh-29" target="7aIhMmLS_khhMejl1p58-229">
          <mxGeometry x="0.0016" y="21" relative="1" as="geometry">
            <mxPoint x="87.67999999999984" y="1048.266" as="sourcePoint" />
            <mxPoint x="-80" y="790" as="targetPoint" />
            <mxPoint as="offset" />
          </mxGeometry>
        </mxCell>
        <mxCell id="ZHExhOOGHCl3_tG_iDXk-2" value="" style="resizable=0;html=1;align=left;verticalAlign=bottom;labelBackgroundColor=none;" connectable="0" vertex="1" parent="ZHExhOOGHCl3_tG_iDXk-1">
          <mxGeometry x="-1" relative="1" as="geometry" />
        </mxCell>
        <mxCell id="ZHExhOOGHCl3_tG_iDXk-4" value="" style="resizable=0;html=1;align=right;verticalAlign=bottom;labelBackgroundColor=none;" connectable="0" vertex="1" parent="ZHExhOOGHCl3_tG_iDXk-1">
          <mxGeometry x="1" relative="1" as="geometry" />
        </mxCell>
        <mxCell id="ZHExhOOGHCl3_tG_iDXk-5" value="1" style="resizable=0;html=1;align=right;verticalAlign=top;labelBackgroundColor=none;" connectable="0" vertex="1" parent="ZHExhOOGHCl3_tG_iDXk-1">
          <mxGeometry x="1" relative="1" as="geometry">
            <mxPoint x="-10" as="offset" />
          </mxGeometry>
        </mxCell>
        <mxCell id="ZHExhOOGHCl3_tG_iDXk-6" value="check" style="edgeLabel;html=1;align=center;verticalAlign=middle;resizable=0;points=[];" vertex="1" connectable="0" parent="ZHExhOOGHCl3_tG_iDXk-1">
          <mxGeometry x="-0.031" y="-1" relative="1" as="geometry">
            <mxPoint as="offset" />
          </mxGeometry>
        </mxCell>
        <mxCell id="ZHExhOOGHCl3_tG_iDXk-8" value="1" style="edgeLabel;html=1;align=center;verticalAlign=middle;resizable=0;points=[];" vertex="1" connectable="0" parent="ZHExhOOGHCl3_tG_iDXk-1">
          <mxGeometry x="-0.9435" y="1" relative="1" as="geometry">
            <mxPoint x="3" y="-12" as="offset" />
          </mxGeometry>
        </mxCell>
      </root>
    </mxGraphModel>
  </diagram>
</mxfile>
